<svg width="347" height="376" viewBox="0 0 347 376" fill="none" xmlns="http://www.w3.org/2000/svg">
<path d="M164.79 375.027C255.552 375.027 329.13 365.84 329.13 354.507C329.13 343.174 255.552 333.987 164.79 333.987C74.0272 333.987 0.449707 343.174 0.449707 354.507C0.449707 365.84 74.0272 375.027 164.79 375.027Z" fill="#254355"/>
<path d="M129.05 340.46V333.8C129.05 330.83 126.62 328.4 123.65 328.4H64.2501C61.2801 328.4 58.8501 330.83 58.8501 333.8V353.6C58.8501 356.57 61.2801 359 64.2501 359H103.76C108.08 359 112.22 357.29 115.28 354.23L129.05 340.46Z" fill="#11B4FA"/>
<path opacity="0.3" d="M123.65 328.4H64.2501C61.2801 328.4 58.8501 330.83 58.8501 333.8V352.16H117.35L129.05 340.46V333.8C129.05 330.83 126.62 328.4 123.65 328.4Z" fill="#0A1E2B" stroke="#0A1E2B" stroke-width="6" stroke-miterlimit="10" stroke-linecap="round" stroke-linejoin="round"/>
<path d="M201.95 340.46V333.8C201.95 330.83 204.38 328.4 207.35 328.4H266.75C269.72 328.4 272.15 330.83 272.15 333.8V353.6C272.15 356.57 269.72 359 266.75 359H227.24C222.92 359 218.78 357.29 215.72 354.23L201.95 340.46Z" fill="#11B4FA"/>
<path opacity="0.3" d="M266.75 328.4H207.35C204.38 328.4 201.95 330.83 201.95 333.8V340.46L213.65 352.16H272.15V333.8C272.15 330.83 269.72 328.4 266.75 328.4Z" fill="#0A1E2B" stroke="#0A1E2B" stroke-width="6" stroke-miterlimit="10" stroke-linecap="round" stroke-linejoin="round"/>
<path d="M129.05 340.46V333.8C129.05 330.83 126.62 328.4 123.65 328.4H64.2501C61.2801 328.4 58.8501 330.83 58.8501 333.8V353.6C58.8501 356.57 61.2801 359 64.2501 359H103.76C108.08 359 112.22 357.29 115.28 354.23L129.05 340.46Z" stroke="#254355" stroke-width="6" stroke-miterlimit="10" stroke-linecap="round" stroke-linejoin="round"/>
<path d="M201.95 340.46V333.8C201.95 330.83 204.38 328.4 207.35 328.4H266.75C269.72 328.4 272.15 330.83 272.15 333.8V353.6C272.15 356.57 269.72 359 266.75 359H227.24C222.92 359 218.78 357.29 215.72 354.23L201.95 340.46Z" stroke="#254355" stroke-width="6" stroke-miterlimit="10" stroke-linecap="round" stroke-linejoin="round"/>
<path d="M282.5 340.55H48.5C28.61 340.55 12.5 324.44 12.5 304.55V70.55C12.5 50.66 28.61 34.55 48.5 34.55H282.5C302.39 34.55 318.5 50.66 318.5 70.55V304.55C318.5 324.44 302.39 340.55 282.5 340.55Z" fill="#CBEDF9"/>
<path d="M282.5 34.55H48.5C28.61 34.55 12.5 50.66 12.5 70.55V91.25C12.5 71.36 28.61 55.25 48.5 55.25H282.5C302.39 55.25 318.5 71.36 318.5 91.25V70.55C318.5 50.66 302.39 34.55 282.5 34.55Z" fill="#E8F9FF"/>
<path opacity="0.23" d="M227.33 34.19H250.37L234.8 66.95L227.33 34.19Z" fill="#0A1E2B" stroke="#0A1E2B" stroke-width="6" stroke-miterlimit="10" stroke-linecap="round" stroke-linejoin="round"/>
<path d="M282.5 319.85H48.5C28.61 319.85 12.5 303.74 12.5 283.85V304.55C12.5 324.44 28.61 340.55 48.5 340.55H282.5C302.39 340.55 318.5 324.44 318.5 304.55V283.85C318.5 303.74 302.39 319.85 282.5 319.85Z" fill="#11B4FA"/>
<path d="M282.5 340.55H48.5C28.61 340.55 12.5 324.44 12.5 304.55V70.55C12.5 50.66 28.61 34.55 48.5 34.55H282.5C302.39 34.55 318.5 50.66 318.5 70.55V304.55C318.5 324.44 302.39 340.55 282.5 340.55Z" stroke="#254355" stroke-width="6" stroke-miterlimit="10" stroke-linecap="round" stroke-linejoin="round"/>
<path d="M271.7 66.9501H59.2999C51.3799 66.9501 44.8999 73.4301 44.8999 81.3501V88.5501C44.8999 80.6301 51.3799 76.8501 59.2999 76.8501H271.7C279.62 76.8501 286.1 80.6301 286.1 88.5501V81.3501C286.1 73.3401 279.62 66.9501 271.7 66.9501Z" fill="#E8F9FF"/>
<path d="M271.7 296.45H59.2999C51.3799 296.45 44.8999 289.97 44.8999 282.05V293.75C44.8999 301.67 51.3799 308.15 59.2999 308.15H271.7C279.62 308.15 286.1 301.67 286.1 293.75V282.05C286.1 289.97 279.62 296.45 271.7 296.45Z" fill="#11B4FA"/>
<path d="M59.2999 308.15C51.3799 308.15 44.8999 301.67 44.8999 293.75V81.3501C44.8999 73.4301 51.3799 66.9501 59.2999 66.9501H271.7C279.62 66.9501 286.1 73.4301 286.1 81.3501V293.75C286.1 301.67 279.62 308.15 271.7 308.15H59.2999Z" stroke="#254355" stroke-width="6" stroke-miterlimit="10" stroke-linecap="round" stroke-linejoin="round"/>
<path opacity="0.23" d="M260.27 273.14H258.47C256.49 273.14 254.87 271.52 254.87 269.54V132.74C254.87 130.76 256.49 129.14 258.47 129.14H260.27C262.25 129.14 263.87 130.76 263.87 132.74V269.54C263.87 271.52 262.25 273.14 260.27 273.14Z" fill="#0A1E2B" stroke="#0A1E2B" stroke-width="6" stroke-miterlimit="10" stroke-linecap="round" stroke-linejoin="round"/>
<path d="M260.27 255.14H258.47C256.49 255.14 254.87 253.52 254.87 251.54V114.74C254.87 112.76 256.49 111.14 258.47 111.14H260.27C262.25 111.14 263.87 112.76 263.87 114.74V251.54C263.87 253.52 262.25 255.14 260.27 255.14Z" fill="#11B4FA"/>
<path d="M260.27 255.14H258.47C256.49 255.14 254.87 253.52 254.87 251.54V114.74C254.87 112.76 256.49 111.14 258.47 111.14H260.27C262.25 111.14 263.87 112.76 263.87 114.74V251.54C263.87 253.52 262.25 255.14 260.27 255.14Z" stroke="#254355" stroke-width="6" stroke-miterlimit="10" stroke-linecap="round" stroke-linejoin="round"/>
<path opacity="0.23" d="M165.5 253.25C197.809 253.25 224 227.059 224 194.75C224 162.441 197.809 136.25 165.5 136.25C133.191 136.25 107 162.441 107 194.75C107 227.059 133.191 253.25 165.5 253.25Z" fill="#0A1E2B" stroke="#0A1E2B" stroke-width="6" stroke-miterlimit="10" stroke-linecap="round" stroke-linejoin="round"/>
<path d="M165.5 246.05C197.809 246.05 224 219.859 224 187.55C224 155.241 197.809 129.05 165.5 129.05C133.191 129.05 107 155.241 107 187.55C107 219.859 133.191 246.05 165.5 246.05Z" fill="#CBEDF9"/>
<path d="M165.5 246.05C197.809 246.05 224 219.859 224 187.55C224 155.241 197.809 129.05 165.5 129.05C133.191 129.05 107 155.241 107 187.55C107 219.859 133.191 246.05 165.5 246.05Z" stroke="#254355" stroke-width="6" stroke-miterlimit="10" stroke-linecap="round" stroke-linejoin="round"/>
<path d="M165.5 236.15C192.341 236.15 214.1 214.391 214.1 187.55C214.1 160.709 192.341 138.95 165.5 138.95C138.659 138.95 116.9 160.709 116.9 187.55C116.9 214.391 138.659 236.15 165.5 236.15Z" fill="#11B4FA"/>
<path d="M165.5 150.65V224.45" stroke="#254355" stroke-width="10" stroke-miterlimit="10" stroke-linecap="round" stroke-linejoin="round"/>
<path d="M202.4 187.55H128.6" stroke="#254355" stroke-width="10" stroke-miterlimit="10" stroke-linecap="round" stroke-linejoin="round"/>
<path d="M191.599 161.45L139.399 213.65" stroke="#254355" stroke-width="10" stroke-miterlimit="10" stroke-linecap="round" stroke-linejoin="round"/>
<path d="M191.599 213.65L139.399 161.45" stroke="#254355" stroke-width="10" stroke-miterlimit="10" stroke-linecap="round" stroke-linejoin="round"/>
<path opacity="0.3" d="M165.5 230.48C153.08 230.48 143 220.4 143 207.98V185.48H188V207.98C188 220.4 177.92 230.48 165.5 230.48Z" fill="#0A1E2B" stroke="#0A1E2B" stroke-width="6" stroke-miterlimit="10" stroke-linecap="round" stroke-linejoin="round"/>
<path opacity="0.23" d="M44.9002 153.8C40.9402 153.8 37.7002 150.56 37.7002 146.6V125C37.7002 121.04 40.9402 117.8 44.9002 117.8C48.8602 117.8 52.1002 121.04 52.1002 125V146.6C52.1002 150.56 48.8602 153.8 44.9002 153.8Z" fill="#0A1E2B" stroke="#0A1E2B" stroke-width="6" stroke-miterlimit="10" stroke-linecap="round" stroke-linejoin="round"/>
<path opacity="0.23" d="M44.9002 271.25C40.9402 271.25 37.7002 268.01 37.7002 264.05V242.45C37.7002 238.49 40.9402 235.25 44.9002 235.25C48.8602 235.25 52.1002 238.49 52.1002 242.45V264.05C52.1002 268.01 48.8602 271.25 44.9002 271.25Z" fill="#0A1E2B" stroke="#0A1E2B" stroke-width="6" stroke-miterlimit="10" stroke-linecap="round" stroke-linejoin="round"/>
<path d="M44.9002 146.6C40.9402 146.6 37.7002 143.36 37.7002 139.4V117.8C37.7002 113.84 40.9402 110.6 44.9002 110.6C48.8602 110.6 52.1002 113.84 52.1002 117.8V139.4C52.1002 143.36 48.8602 146.6 44.9002 146.6Z" fill="#11B4FA"/>
<path d="M44.9002 264.5C40.9402 264.5 37.7002 261.26 37.7002 257.3V235.7C37.7002 231.74 40.9402 228.5 44.9002 228.5C48.8602 228.5 52.1002 231.74 52.1002 235.7V257.3C52.1002 261.26 48.8602 264.5 44.9002 264.5Z" fill="#11B4FA"/>
<path d="M44.9002 146.6C40.9402 146.6 37.7002 143.36 37.7002 139.4V117.8C37.7002 113.84 40.9402 110.6 44.9002 110.6C48.8602 110.6 52.1002 113.84 52.1002 117.8V139.4C52.1002 143.36 48.8602 146.6 44.9002 146.6Z" stroke="#254355" stroke-width="6" stroke-miterlimit="10" stroke-linecap="round" stroke-linejoin="round"/>
<path d="M44.9002 264.5C40.9402 264.5 37.7002 261.26 37.7002 257.3V235.7C37.7002 231.74 40.9402 228.5 44.9002 228.5C48.8602 228.5 52.1002 231.74 52.1002 235.7V257.3C52.1002 261.26 48.8602 264.5 44.9002 264.5Z" stroke="#254355" stroke-width="6" stroke-miterlimit="10" stroke-linecap="round" stroke-linejoin="round"/>
<path d="M165.5 210.05C177.926 210.05 188 199.976 188 187.55C188 175.124 177.926 165.05 165.5 165.05C153.074 165.05 143 175.124 143 187.55C143 199.976 153.074 210.05 165.5 210.05Z" fill="#FF8E97"/>
<path d="M165.5 197.63C171.067 197.63 175.58 193.117 175.58 187.55C175.58 181.983 171.067 177.47 165.5 177.47C159.933 177.47 155.42 181.983 155.42 187.55C155.42 193.117 159.933 197.63 165.5 197.63Z" fill="#E63946"/>
<path d="M165.5 208.25C176.933 208.25 186.2 198.982 186.2 187.55C186.2 176.118 176.933 166.85 165.5 166.85C154.068 166.85 144.8 176.118 144.8 187.55C144.8 198.982 154.068 208.25 165.5 208.25Z" stroke="#254355" stroke-width="8" stroke-miterlimit="10" stroke-linecap="round" stroke-linejoin="round"/>
<path d="M236.6 66.95H174.95V19.9699C174.95 16.3699 177.83 13.49 181.43 13.49H230.03C233.63 13.49 236.51 16.3699 236.51 19.9699L236.6 66.95Z" fill="#5F9E71" stroke="#254355" stroke-width="6" stroke-miterlimit="10" stroke-linecap="round" stroke-linejoin="round"/>
<path d="M224.45 24.65H211.31C211.31 27.71 208.88 30.14 205.82 30.14C202.76 30.14 200.33 27.71 200.33 24.65H187.1C185.57 24.65 184.22 25.91 184.22 27.53V66.95H227.24V27.53C227.33 25.91 225.98 24.65 224.45 24.65Z" fill="#90C49E"/>
<path d="M236.6 66.95H174.95V19.9699C174.95 16.3699 177.83 13.49 181.43 13.49H230.03C233.63 13.49 236.51 16.3699 236.51 19.9699L236.6 66.95Z" stroke="#254355" stroke-width="6" stroke-miterlimit="10" stroke-linecap="round" stroke-linejoin="round"/>
<path d="M343.7 50.57L325.52 48.05" stroke="#254355" stroke-width="6" stroke-miterlimit="10" stroke-linecap="round" stroke-linejoin="round"/>
<path d="M300.41 22.0401L297.71 3.86011" stroke="#254355" stroke-width="6" stroke-miterlimit="10" stroke-linecap="round" stroke-linejoin="round"/>
<path d="M318.41 28.61L331.46 15.56" stroke="#254355" stroke-width="6" stroke-miterlimit="10" stroke-linecap="round" stroke-linejoin="round"/>
</svg>
