<svg xmlns="http://www.w3.org/2000/svg" width="2024" height="2024" preserveAspectRatio="xMidYMid meet" version="1.0" viewBox="0 0 1518 1518"><metadata>Created by potrace 1.14, written by Peter Selinger 2001-2017</metadata><g fill="#000" stroke="none"><path d="M720 15166 c-180 -40 -313 -111 -444 -235 -118 -114 -206 -261 -252 -421 -18 -63 -19 -266 -22 -6885 -2 -4905 0 -6837 8 -6880 34 -184 110 -333 239 -469 114 -118 261 -206 421 -252 63 -18 266 -19 6885 -22 4905 -2 6837 0 6880 8 133 24 262 78 370 155 70 50 177 159 224 228 43 64 104 196 127 277 18 63 19 266 22 6885 2 4905 0 6837 -8 6880 -34 184 -110 333 -239 469 -114 118 -261 206 -421 252 -63 18 -264 19 -6900 20 -5354 2 -6847 -1 -6890 -10z m4108 -5081 l44 -360 -59 -53 c-76 -70 -178 -133 -311 -192 l-107 -48 -3 -2004 -2 -2005 97 -42 c129 -56 269 -140 333 -198 l51 -48 -43 -360 -44 -360 -1022 -3 c-612 -1 -1022 2 -1022 7 0 5 -18 158 -40 340 -22 182 -40 344 -40 360 0 60 166 176 377 264 l103 42 -3 2003 -2 2002 -111 48 c-206 89 -364 206 -364 269 0 17 18 178 40 359 22 181 40 332 40 336 0 5 460 7 1022 6 l1023 -3 43 -360z m2134 -1210 c16 -6 18 -29 20 -221 l3 -214 90 65 c109 79 371 211 515 259 240 80 396 101 665 86 553 -30 907 -174 1126 -459 l26 -33 74 62 c219 184 612 359 934 416 185 32 586 17 821 -31 690 -143 933 -499 1025 -1500 6 -71 13 -489 16 -1023 l5 -904 52 -21 c145 -59 295 -149 377 -226 l49 -46 -45 -335 c-24 -184 -45 -336 -45 -337 0 -2 -451 -3 -1003 -3 l-1003 0 -43 335 c-50 385 -54 351 50 433 74 58 185 120 302 168 l87 37 0 921 c0 945 -4 1080 -40 1232 -52 223 -145 314 -370 360 -105 22 -356 25 -445 5 -182 -41 -382 -137 -513 -248 l-34 -28 11 -95 c25 -213 31 -475 31 -1293 l0 -858 31 -11 c127 -44 342 -172 413 -246 l38 -40 -43 -336 -43 -336 -1003 0 -1002 0 -6 33 c-3 17 -23 169 -45 337 l-40 305 64 61 c74 72 171 131 311 191 l100 42 3 953 c2 651 -1 984 -8 1052 -22 193 -69 325 -143 399 -138 138 -537 178 -824 82 -99 -33 -263 -119 -348 -181 l-65 -48 0 -1128 0 -1128 43 -17 c156 -63 326 -165 401 -241 l38 -40 -43 -336 -43 -336 -1003 0 -1002 0 -6 33 c-3 17 -24 169 -46 337 l-39 305 63 61 c78 74 159 124 302 186 l110 48 0 1221 0 1221 -85 35 c-115 47 -228 115 -317 192 -69 58 -74 65 -69 95 3 17 21 159 41 316 20 157 38 294 40 306 5 24 28 30 259 69 289 48 387 55 816 50 217 -2 403 -7 412 -10z" transform="translate(0.000000,1518.000000) scale(0.100000,-0.100000)"/></g></svg>